<svg xmlns="http://www.w3.org/2000/svg" width="2592" height="1632" viewBox="0 0 2592 1632" version="1.1"><path d="M 258.500 461.010 C 218.900 461.290, 186.950 461.629, 187.500 461.762 C 188.572 462.022, 209.312 464.262, 249.500 468.456 C 327.549 476.602, 377.115 485.155, 429.500 499.514 C 469.967 510.607, 515.215 528.423, 540.500 543.219 C 580.255 566.482, 600.596 581.612, 628.031 608.325 C 686.215 664.978, 728.367 737.276, 762.815 839.500 C 776.402 879.818, 798.294 961.363, 807.515 1006 C 808.367 1010.125, 811.060 1022.050, 813.499 1032.500 C 821.998 1068.919, 835.190 1129.029, 840.035 1153.416 C 841.664 1161.619, 843.248 1168.582, 843.554 1168.888 C 843.860 1169.194, 844.060 1160.457, 843.998 1149.472 C 843.937 1138.487, 843.912 1036.120, 843.943 921.990 L 844 714.479 853.750 712.657 C 880.131 707.726, 907.056 705.458, 927 706.487 C 990.748 709.777, 1039.505 726.340, 1091.847 762.488 C 1111.829 776.288, 1142.673 804.637, 1160.947 826 C 1175.321 842.804, 1189.205 859.831, 1191.524 863.500 C 1192.567 865.150, 1195.463 869.193, 1197.960 872.485 C 1206.897 884.265, 1220.938 904.550, 1246.424 942.500 C 1272.851 981.851, 1298.762 1016.791, 1313.168 1032.500 C 1315.186 1034.700, 1317.840 1037.781, 1319.067 1039.347 C 1325.487 1047.541, 1351.131 1073.121, 1364 1084.168 C 1395.741 1111.416, 1430.920 1133.180, 1466.131 1147.354 C 1497.008 1159.783, 1531.521 1167.606, 1565.830 1169.952 C 1584.397 1171.221, 2408.926 1171.221, 2402 1169.951 C 2399.525 1169.498, 2383.775 1167.947, 2367 1166.506 C 2290.628 1159.944, 2238.748 1151.975, 2179 1137.628 C 2130.288 1125.930, 2078.918 1105.883, 2043.885 1084.900 C 1954.519 1031.371, 1890.640 951.338, 1845.367 836.182 C 1836.157 812.754, 1820.335 764.879, 1812.423 736.500 C 1806.731 716.082, 1788.590 644.318, 1785.122 628.500 C 1784.519 625.750, 1781.949 614.500, 1779.410 603.500 C 1776.871 592.500, 1773.759 579, 1772.496 573.500 C 1771.232 568, 1767.635 551.575, 1764.504 537 C 1761.372 522.425, 1757.553 505.100, 1756.018 498.500 C 1754.482 491.900, 1752.439 482.225, 1751.477 477 C 1750.515 471.775, 1749.342 466.825, 1748.870 466 C 1748.392 465.164, 1748.078 564.183, 1748.161 689.796 C 1748.248 823.020, 1747.939 915.450, 1747.404 915.968 C 1744.597 918.690, 1715.665 923.583, 1693.500 925.084 C 1656.645 927.579, 1617.477 922.210, 1579.264 909.423 C 1538.468 895.772, 1502.197 873.839, 1465.939 840.895 C 1449.723 826.162, 1423.191 796.711, 1407.814 776.375 C 1391.980 755.435, 1386.505 747.594, 1339.827 679 C 1308.503 632.969, 1288.231 607.017, 1261.625 578.887 C 1253.100 569.874, 1245.085 561.579, 1243.813 560.452 C 1220.117 539.471, 1209.933 531.502, 1190.438 518.688 C 1147.072 490.181, 1104.799 473.010, 1058.500 465.095 C 1030.427 460.296, 1048.040 460.509, 679 460.504 C 487.325 460.502, 298.100 460.729, 258.500 461.010" stroke="none" fill="#04040f" fill-rule="evenodd"/></svg>